<svg width="172" height="177" viewBox="0 0 172 177" fill="none" xmlns="http://www.w3.org/2000/svg">
<path d="M85.7568 41.6974C77.8107 38.3913 72.2237 30.5535 72.2236 21.4103C72.2236 12.2679 77.8101 4.43181 85.7549 1.12512C93.7003 4.43155 99.2871 12.2685 99.2871 21.4113C99.2871 30.5534 93.7014 38.3906 85.7568 41.6974Z" fill="#67864B" fill-opacity="0.5"/>
<path d="M85.7568 41.6974L85.6608 41.9282L85.7569 41.9682L85.8529 41.9282L85.7568 41.6974ZM72.2236 21.4103L71.9736 21.4103V21.4103L72.2236 21.4103ZM85.7549 1.12512L85.8509 0.894309L85.7549 0.854335L85.6588 0.894313L85.7549 1.12512ZM99.2871 21.4113L99.5371 21.4113V21.4113L99.2871 21.4113ZM85.7568 41.6974L85.8529 41.4666C77.9967 38.1979 72.4737 30.449 72.4736 21.4103L72.2236 21.4103L71.9736 21.4103C71.9737 30.658 77.6248 38.5847 85.6608 41.9282L85.7568 41.6974ZM72.2236 21.4103L72.4736 21.4103C72.4736 12.3724 77.996 4.6252 85.8509 1.35593L85.7549 1.12512L85.6588 0.894313C77.6241 4.23842 71.9736 12.1634 71.9736 21.4103L72.2236 21.4103ZM85.7549 1.12512L85.6588 1.35593C93.5143 4.62494 99.0371 12.373 99.0371 21.4113L99.2871 21.4113L99.5371 21.4113C99.5371 12.164 93.8863 4.23816 85.8509 0.894309L85.7549 1.12512ZM99.2871 21.4113L99.0371 21.4113C99.0371 30.4489 93.5154 38.1972 85.6608 41.4666L85.7568 41.6974L85.8529 41.9282C93.8874 38.5839 99.5371 30.6579 99.5371 21.4113L99.2871 21.4113Z" fill="#67864B"/>
<path d="M85.3325 42.1216C79.9189 35.4318 78.7362 25.8801 83.088 17.8397C87.4399 9.79933 96.0834 5.5675 104.645 6.44144C110.058 13.1312 111.241 22.6818 106.889 30.722C102.537 38.7624 93.8937 42.9955 85.3325 42.1216Z" fill="#67864B" fill-opacity="0.5"/>
<path d="M85.3325 42.1216L85.1381 42.2788L85.2036 42.3597L85.3071 42.3703L85.3325 42.1216ZM83.088 17.8397L82.8681 17.7207L82.8681 17.7207L83.088 17.8397ZM104.645 6.44144L104.839 6.28418L104.774 6.2033L104.67 6.19273L104.645 6.44144ZM106.889 30.722L107.109 30.841L107.109 30.841L106.889 30.722ZM85.3325 42.1216L85.5268 41.9643C80.1745 35.3502 79.0058 25.9072 83.3078 17.9587L83.088 17.8397L82.8681 17.7207C78.4666 25.853 79.6633 35.5133 85.1381 42.2788L85.3325 42.1216ZM83.088 17.8397L83.3078 17.9587C87.61 10.0102 96.1549 5.8261 104.619 6.69015L104.645 6.44144L104.67 6.19273C96.012 5.3089 87.2697 9.58843 82.8681 17.7207L83.088 17.8397ZM104.645 6.44144L104.45 6.5987C109.802 13.2128 110.971 22.6547 106.669 30.603L106.889 30.722L107.109 30.841C111.51 22.7089 110.313 13.0497 104.839 6.28418L104.645 6.44144ZM106.889 30.722L106.669 30.603C102.367 38.5515 93.8221 42.7369 85.3579 41.8728L85.3325 42.1216L85.3071 42.3703C93.9652 43.2541 102.707 38.9732 107.109 30.841L106.889 30.722Z" fill="#67864B"/>
<path d="M85.3325 42.1216C79.9189 35.4318 78.7362 25.8801 83.088 17.8397C87.4399 9.79933 96.0834 5.5675 104.645 6.44144C110.058 13.1312 111.241 22.6818 106.889 30.722C102.537 38.7624 93.8937 42.9955 85.3325 42.1216Z" fill="#67864B" fill-opacity="0.5"/>
<path d="M85.3325 42.1216L85.1381 42.2788L85.2036 42.3597L85.3071 42.3703L85.3325 42.1216ZM83.088 17.8397L82.8681 17.7207L82.8681 17.7207L83.088 17.8397ZM104.645 6.44144L104.839 6.28418L104.774 6.2033L104.67 6.19273L104.645 6.44144ZM106.889 30.722L107.109 30.841L107.109 30.841L106.889 30.722ZM85.3325 42.1216L85.5268 41.9643C80.1745 35.3502 79.0058 25.9072 83.3078 17.9587L83.088 17.8397L82.8681 17.7207C78.4666 25.853 79.6633 35.5133 85.1381 42.2788L85.3325 42.1216ZM83.088 17.8397L83.3078 17.9587C87.61 10.0102 96.1549 5.8261 104.619 6.69015L104.645 6.44144L104.67 6.19273C96.012 5.3089 87.2697 9.58843 82.8681 17.7207L83.088 17.8397ZM104.645 6.44144L104.45 6.5987C109.802 13.2128 110.971 22.6547 106.669 30.603L106.889 30.722L107.109 30.841C111.51 22.7089 110.313 13.0497 104.839 6.28418L104.645 6.44144ZM106.889 30.722L106.669 30.603C102.367 38.5515 93.8221 42.7369 85.3579 41.8728L85.3325 42.1216L85.3071 42.3703C93.9652 43.2541 102.707 38.9732 107.109 30.841L106.889 30.722Z" fill="#67864B"/>
<path d="M85.3316 42.122C90.7451 35.4322 91.9271 25.881 87.5753 17.8406C83.2234 9.8003 74.5806 5.56801 66.0195 6.44193C60.6064 13.1318 59.4235 22.6823 63.7753 30.7225C68.1272 38.7628 76.7704 42.996 85.3316 42.122Z" fill="#67864B" fill-opacity="0.5"/>
<path d="M85.3316 42.122L85.5259 42.2793L85.4605 42.3602L85.357 42.3708L85.3316 42.122ZM87.5753 17.8406L87.7951 17.7216L87.7951 17.7216L87.5753 17.8406ZM66.0195 6.44193L65.8251 6.28467L65.8906 6.20379L65.9941 6.19322L66.0195 6.44193ZM63.7753 30.7225L63.5555 30.8415V30.8415L63.7753 30.7225ZM85.3316 42.122L85.1373 41.9648C90.4895 35.3507 91.6575 25.9082 87.3554 17.9596L87.5753 17.8406L87.7951 17.7216C92.1967 25.8539 91.0007 35.5138 85.5259 42.2793L85.3316 42.122ZM87.5753 17.8406L87.3554 17.9596C83.0532 10.0112 74.5091 5.82661 66.0448 6.69063L66.0195 6.44193L65.9941 6.19322C74.6521 5.30941 83.3935 9.58941 87.7951 17.7216L87.5753 17.8406ZM66.0195 6.44193L66.2138 6.59918C60.862 13.2133 59.6931 22.6552 63.9952 30.6035L63.7753 30.7225L63.5555 30.8415C59.1539 22.7094 60.3508 13.0502 65.8251 6.28467L66.0195 6.44193ZM63.7753 30.7225L63.9952 30.6035C68.2974 38.5519 76.8419 42.7374 85.3062 41.8733L85.3316 42.122L85.357 42.3708C76.6989 43.2546 67.9571 38.9737 63.5555 30.8415L63.7753 30.7225Z" fill="#67864B"/>
<mask id="mask0_136_2" style="mask-type:alpha" maskUnits="userSpaceOnUse" x="0" y="38" width="172" height="139">
<path d="M34.3625 162.439C34.7606 162.439 35.0971 162.459 35.3717 162.5C35.6463 162.541 35.9071 162.583 36.1542 162.624C36.4013 162.665 36.6557 162.706 36.9165 162.747C37.1774 162.775 37.4932 162.788 37.8639 162.788C37.8364 162.871 37.7949 163.015 37.74 163.221C37.6988 163.427 37.651 163.633 37.5961 163.839C37.5274 164.086 37.4588 164.347 37.3902 164.621C37.2254 164.141 36.9986 163.77 36.7103 163.509C36.422 163.235 36.1269 163.036 35.8249 162.912C35.5365 162.775 35.2686 162.692 35.0215 162.665C34.7745 162.637 34.5961 162.624 34.4863 162.624C33.4565 162.665 32.6257 162.912 31.9941 163.365C31.3763 163.805 31.0673 164.409 31.0673 165.178C31.0673 165.644 31.1702 166.063 31.3761 166.434C31.5958 166.805 31.8845 167.141 32.2414 167.443C32.6121 167.731 33.0308 168.006 33.4976 168.267C33.9643 168.528 34.4448 168.782 34.9391 169.029C35.4196 169.262 35.8936 169.516 36.3604 169.791C36.8272 170.052 37.2391 170.354 37.5961 170.697C37.953 171.027 38.2413 171.411 38.461 171.85C38.6806 172.276 38.7907 172.777 38.7907 173.354C38.7906 173.889 38.6531 174.384 38.3785 174.837C38.1177 175.276 37.7744 175.661 37.3488 175.99C36.9232 176.306 36.4495 176.553 35.9278 176.732C35.4061 176.91 34.891 176.999 34.383 176.999C33.7652 176.999 33.1818 176.944 32.6327 176.835C32.0972 176.711 31.6164 176.567 31.1908 176.402C30.7652 176.223 30.4015 176.038 30.0995 175.846C29.8112 175.654 29.605 175.475 29.4815 175.31C29.5089 175.214 29.5572 175.049 29.6258 174.816C29.6945 174.569 29.7631 174.315 29.8317 174.054C29.9141 173.752 30.0034 173.422 30.0995 173.065C30.0995 173.573 30.2159 174.054 30.4493 174.507C30.6827 174.947 30.9918 175.338 31.3761 175.681C31.7743 176.024 32.2276 176.299 32.7356 176.505C33.2573 176.697 33.8064 176.793 34.383 176.793C34.8498 176.793 35.2963 176.697 35.7219 176.505C36.1612 176.313 36.5456 176.065 36.8751 175.763C37.2183 175.461 37.4863 175.125 37.6785 174.755C37.8844 174.37 37.9873 173.985 37.9873 173.601C37.9873 173.107 37.8705 172.674 37.6371 172.303C37.4174 171.933 37.1223 171.597 36.7517 171.295C36.381 170.992 35.9484 170.711 35.4541 170.45C34.9736 170.189 34.4724 169.928 33.9507 169.667C33.4839 169.434 33.0238 169.187 32.5707 168.926C32.1314 168.665 31.7399 168.37 31.3966 168.04C31.0534 167.697 30.7791 167.312 30.5732 166.887C30.3672 166.461 30.264 165.974 30.2639 165.425C30.2639 164.889 30.3947 164.436 30.6556 164.065C30.9302 163.681 31.2663 163.372 31.6644 163.139C32.0625 162.891 32.502 162.713 32.9825 162.603C33.4767 162.494 33.9368 162.439 34.3625 162.439Z" fill="white"/>
<path d="M74.8313 162.439C75.2294 162.439 75.5659 162.459 75.8405 162.5C76.1151 162.541 76.3759 162.583 76.623 162.624C76.8701 162.665 77.1245 162.706 77.3853 162.747C77.6462 162.775 77.962 162.788 78.3327 162.788C78.3052 162.871 78.2637 163.015 78.2088 163.221C78.1676 163.427 78.1198 163.633 78.0649 163.839C77.9962 164.086 77.9276 164.347 77.859 164.621C77.6942 164.141 77.4674 163.77 77.1791 163.509C76.8908 163.235 76.5957 163.036 76.2937 162.912C76.0053 162.775 75.7374 162.692 75.4903 162.665C75.2433 162.637 75.0649 162.624 74.9551 162.624C73.9253 162.665 73.0945 162.912 72.4629 163.365C71.8451 163.805 71.5361 164.409 71.5361 165.178C71.5361 165.644 71.639 166.063 71.8449 166.434C72.0646 166.805 72.3533 167.141 72.7102 167.443C73.0809 167.731 73.4996 168.006 73.9664 168.267C74.4331 168.528 74.9136 168.782 75.4079 169.029C75.8884 169.262 76.3624 169.516 76.8292 169.791C77.296 170.052 77.7079 170.354 78.0649 170.697C78.4218 171.027 78.7101 171.411 78.9298 171.85C79.1494 172.276 79.2595 172.777 79.2595 173.354C79.2594 173.889 79.1219 174.384 78.8473 174.837C78.5865 175.276 78.2432 175.661 77.8176 175.99C77.392 176.306 76.9183 176.553 76.3966 176.732C75.8749 176.91 75.3598 176.999 74.8518 176.999C74.234 176.999 73.6506 176.944 73.1015 176.835C72.566 176.711 72.0852 176.567 71.6596 176.402C71.234 176.223 70.8703 176.038 70.5683 175.846C70.28 175.654 70.0739 175.475 69.9503 175.31C69.9777 175.214 70.026 175.049 70.0946 174.816C70.1633 174.569 70.2319 174.315 70.3005 174.054C70.3829 173.752 70.4722 173.422 70.5683 173.065C70.5683 173.573 70.6847 174.054 70.9181 174.507C71.1515 174.947 71.4606 175.338 71.8449 175.681C72.2431 176.024 72.6964 176.299 73.2044 176.505C73.7261 176.697 74.2752 176.793 74.8518 176.793C75.3186 176.793 75.7651 176.697 76.1907 176.505C76.63 176.313 77.0144 176.065 77.3439 175.763C77.6871 175.461 77.9551 175.125 78.1473 174.755C78.3532 174.37 78.4561 173.985 78.4561 173.601C78.4561 173.107 78.3393 172.674 78.1059 172.303C77.8862 171.933 77.5911 171.597 77.2205 171.295C76.8498 170.992 76.4172 170.711 75.9229 170.45C75.4424 170.189 74.9412 169.928 74.4195 169.667C73.9527 169.434 73.4926 169.187 73.0395 168.926C72.6002 168.665 72.2087 168.37 71.8654 168.04C71.5222 167.697 71.2479 167.312 71.042 166.887C70.836 166.461 70.7328 165.974 70.7328 165.425C70.7328 164.889 70.8635 164.436 71.1244 164.065C71.399 163.681 71.7351 163.372 72.1332 163.139C72.5313 162.891 72.9708 162.713 73.4513 162.603C73.9455 162.494 74.4056 162.439 74.8313 162.439Z" fill="white"/>
<path d="M97.136 162.439C97.5342 162.439 97.8707 162.459 98.1453 162.5C98.4198 162.541 98.6806 162.583 98.9277 162.624C99.1749 162.665 99.4292 162.706 99.6901 162.747C99.9509 162.775 100.267 162.788 100.637 162.788C100.61 162.871 100.568 163.015 100.514 163.221C100.472 163.427 100.425 163.633 100.37 163.839C100.301 164.086 100.232 164.347 100.164 164.621C99.999 164.141 99.7722 163.77 99.4838 163.509C99.1955 163.235 98.9004 163.036 98.5984 162.912C98.3101 162.775 98.0422 162.692 97.795 162.665C97.5481 162.637 97.3697 162.624 97.2598 162.624C96.2301 162.665 95.3993 162.912 94.7677 163.365C94.1499 163.805 93.8409 164.409 93.8409 165.178C93.8409 165.644 93.9437 166.063 94.1497 166.434C94.3694 166.805 94.658 167.141 95.015 167.443C95.3857 167.731 95.8043 168.006 96.2711 168.267C96.7379 168.528 97.2184 168.782 97.7126 169.029C98.1932 169.262 98.6672 169.516 99.134 169.791C99.6008 170.052 100.013 170.354 100.37 170.697C100.727 171.027 101.015 171.411 101.235 171.85C101.454 172.276 101.564 172.777 101.564 173.354C101.564 173.889 101.427 174.384 101.152 174.837C100.891 175.276 100.548 175.661 100.122 175.99C99.6967 176.306 99.223 176.553 98.7013 176.732C98.1797 176.91 97.6648 176.999 97.1569 176.999C96.5391 176.999 95.9554 176.944 95.4062 176.835C94.8707 176.711 94.39 176.567 93.9643 176.402C93.5388 176.223 93.1751 176.038 92.873 175.846C92.5847 175.654 92.3786 175.475 92.255 175.31C92.2825 175.214 92.3308 175.049 92.3994 174.816C92.468 174.569 92.5366 174.315 92.6053 174.054C92.6876 173.752 92.7769 173.422 92.873 173.065C92.873 173.573 92.9895 174.054 93.2229 174.507C93.4562 174.947 93.7653 175.338 94.1497 175.681C94.5479 176.024 95.0011 176.299 95.5092 176.505C96.0309 176.697 96.5803 176.793 97.1569 176.793C97.6237 176.793 98.0699 176.697 98.4955 176.505C98.9348 176.313 99.3192 176.065 99.6487 175.763C99.9919 175.461 100.26 175.125 100.452 174.755C100.658 174.37 100.761 173.985 100.761 173.601C100.761 173.107 100.644 172.674 100.411 172.303C100.191 171.933 99.8958 171.597 99.5252 171.295C99.1545 170.992 98.722 170.711 98.2277 170.45C97.7472 170.189 97.246 169.928 96.7243 169.667C96.2574 169.434 95.7974 169.187 95.3443 168.926C94.905 168.665 94.5138 168.37 94.1706 168.04C93.8273 167.697 93.5527 167.312 93.3467 166.887C93.1408 166.461 93.0375 165.974 93.0375 165.425C93.0375 164.889 93.1683 164.436 93.4291 164.065C93.7037 163.681 94.0399 163.372 94.438 163.139C94.8362 162.891 95.2759 162.713 95.7564 162.603C96.2506 162.494 96.7104 162.439 97.136 162.439Z" fill="white"/>
<path d="M82.9703 162.706C82.5722 162.706 82.3182 162.85 82.2083 163.139C82.1122 163.427 82.0572 163.763 82.0435 164.148V172.983C82.0435 173.505 82.1464 173.999 82.3523 174.466C82.572 174.919 82.8674 175.317 83.2381 175.66C83.6088 175.99 84.0413 176.251 84.5356 176.443C85.0299 176.636 85.5518 176.732 86.101 176.732C86.4991 176.732 86.9385 176.642 87.419 176.464C87.9132 176.285 88.373 176.031 88.7986 175.702C89.2242 175.372 89.5814 174.981 89.8698 174.528C90.158 174.061 90.3024 173.546 90.3024 172.983H90.2815V163.757C90.254 163.468 90.1787 163.221 90.0551 163.015C89.9316 162.809 89.705 162.706 89.3756 162.706V162.5H91.4351V162.706C91.0369 162.706 90.7826 162.85 90.6727 163.139C90.5766 163.427 90.522 163.763 90.5083 164.148V172.983C90.5083 173.478 90.4121 173.965 90.22 174.445C90.0415 174.912 89.7668 175.331 89.3961 175.702C89.0254 176.073 88.5653 176.374 88.0161 176.608C87.467 176.827 86.8286 176.937 86.101 176.937C85.6067 176.937 85.1123 176.876 84.6181 176.752C84.1238 176.629 83.6569 176.45 83.2176 176.217C82.792 175.969 82.4144 175.688 82.0849 175.372C81.7554 175.043 81.501 174.686 81.3225 174.301C81.2127 174.095 81.1373 173.883 81.0961 173.663C81.0687 173.443 81.0412 173.217 81.0137 172.983V164.478C81.0137 164.258 81.0069 164.045 80.9932 163.839C80.9932 163.619 80.9589 163.427 80.8903 163.262C80.8354 163.098 80.7461 162.967 80.6225 162.871C80.4989 162.761 80.3203 162.706 80.0869 162.706V162.5H82.9703V162.706Z" fill="white"/>
<path fill-rule="evenodd" clip-rule="evenodd" d="M49.8482 175.887C49.958 176.121 50.1024 176.32 50.2808 176.484C50.4593 176.635 50.6997 176.711 51.0018 176.711V176.917H48.1389V176.711C48.3723 176.711 48.5302 176.663 48.6126 176.567C48.7087 176.471 48.7569 176.347 48.7569 176.196C48.7569 176.031 48.7294 175.846 48.6745 175.64C48.6333 175.434 48.5783 175.228 48.5096 175.022L47.5004 172.139H41.4248L40.0862 175.97C39.9765 176.299 39.9696 176.505 40.0657 176.587C40.1618 176.67 40.3265 176.711 40.5599 176.711V176.917H38.9946V176.711C39.2417 176.711 39.4271 176.642 39.5507 176.505C39.6742 176.368 39.7703 176.224 39.839 176.073L44.2467 163.406C44.329 163.104 44.3219 162.912 44.2258 162.83C44.1433 162.747 43.9237 162.706 43.5667 162.706V162.5H45.1731L49.8482 175.887ZM41.4867 171.933H47.4389L44.473 163.386L41.4867 171.933Z" fill="white"/>
<path d="M54.7098 162.706C54.4765 162.706 54.2978 162.761 54.1743 162.871C54.0507 162.967 53.9546 163.098 53.886 163.262C53.8311 163.427 53.7968 163.619 53.783 163.839V175.269C53.7968 175.654 53.8518 175.99 53.9479 176.278C54.0577 176.567 54.3117 176.711 54.7098 176.711V176.917H51.8265V176.711C52.0599 176.711 52.2385 176.663 52.362 176.567C52.4856 176.457 52.5749 176.32 52.6298 176.155C52.6985 175.99 52.7328 175.805 52.7328 175.599C52.7465 175.379 52.7533 175.16 52.7533 174.94V164.045C52.7533 163.866 52.7397 163.702 52.7123 163.551C52.6848 163.386 52.6366 163.242 52.5679 163.118C52.513 162.994 52.4237 162.898 52.3001 162.83C52.1766 162.747 52.0187 162.706 51.8265 162.706V162.5H54.7098V162.706Z" fill="white"/>
<path d="M105.275 162.706C105.042 162.706 104.863 162.761 104.739 162.871C104.616 162.967 104.52 163.098 104.451 163.262C104.396 163.427 104.362 163.619 104.348 163.839V169.461H111.804V164.045C111.804 163.866 111.79 163.702 111.763 163.551C111.735 163.386 111.687 163.242 111.618 163.118C111.564 162.994 111.474 162.898 111.351 162.83C111.227 162.747 111.069 162.706 110.877 162.706V162.5H113.76V162.706C113.527 162.706 113.348 162.761 113.225 162.871C113.101 162.967 113.005 163.098 112.936 163.262C112.882 163.427 112.847 163.619 112.834 163.839V175.269C112.847 175.654 112.902 175.99 112.998 176.278C113.108 176.567 113.362 176.711 113.76 176.711V176.917H110.877V176.711C111.11 176.711 111.289 176.663 111.413 176.567C111.536 176.457 111.625 176.32 111.68 176.155C111.749 175.99 111.783 175.805 111.783 175.599C111.797 175.379 111.804 175.16 111.804 174.94V169.667H104.348V175.269C104.362 175.654 104.417 175.99 104.513 176.278C104.623 176.567 104.877 176.711 105.275 176.711V176.917H102.392V176.711C102.625 176.711 102.804 176.663 102.927 176.567C103.051 176.457 103.14 176.32 103.195 176.155C103.264 175.99 103.298 175.805 103.298 175.599C103.312 175.379 103.318 175.16 103.318 174.94V164.045C103.318 163.866 103.305 163.702 103.277 163.551C103.25 163.386 103.202 163.242 103.133 163.118C103.078 162.995 102.989 162.898 102.865 162.83C102.742 162.747 102.584 162.706 102.392 162.706V162.5H105.275V162.706Z" fill="white"/>
<path d="M121.562 175.558L126.566 162.5H128.523V162.706C128.29 162.706 128.111 162.761 127.988 162.871C127.864 162.967 127.768 163.098 127.699 163.262C127.644 163.427 127.61 163.619 127.596 163.839V175.599C127.61 175.805 127.644 175.99 127.699 176.155C127.768 176.32 127.864 176.457 127.988 176.567C128.111 176.663 128.29 176.711 128.523 176.711V176.917H125.639V176.711C125.873 176.711 126.051 176.663 126.175 176.567C126.299 176.457 126.388 176.32 126.443 176.155C126.511 175.99 126.546 175.805 126.546 175.599C126.559 175.379 126.566 175.16 126.566 174.94V163.036L121.232 176.917H121.047L115.713 162.974V175.599C115.726 175.805 115.761 175.99 115.816 176.155C115.884 176.32 115.98 176.457 116.104 176.567C116.227 176.663 116.406 176.711 116.639 176.711V176.917H114.58V176.711C114.813 176.711 114.992 176.663 115.115 176.567C115.239 176.457 115.328 176.32 115.383 176.155C115.452 175.99 115.486 175.805 115.486 175.599C115.5 175.379 115.507 175.16 115.507 174.94V164.045C115.507 163.866 115.493 163.702 115.466 163.551C115.438 163.386 115.39 163.242 115.321 163.118C115.266 162.994 115.177 162.898 115.054 162.83C114.93 162.747 114.772 162.706 114.58 162.706V162.5H116.557L121.562 175.558Z" fill="white"/>
<path fill-rule="evenodd" clip-rule="evenodd" d="M140.196 175.887C140.306 176.121 140.45 176.32 140.629 176.484C140.807 176.635 141.047 176.711 141.35 176.711V176.917H138.487V176.711C138.72 176.711 138.878 176.663 138.96 176.567C139.056 176.471 139.105 176.347 139.105 176.196C139.105 176.031 139.077 175.846 139.022 175.64C138.981 175.434 138.926 175.228 138.857 175.022L137.849 172.139H131.773L130.434 175.97C130.324 176.299 130.317 176.505 130.413 176.587C130.51 176.67 130.674 176.711 130.908 176.711V176.917H129.343V176.711C129.59 176.711 129.775 176.642 129.898 176.505C130.022 176.368 130.118 176.224 130.187 176.073L134.594 163.406C134.677 163.104 134.67 162.912 134.574 162.83C134.492 162.747 134.271 162.706 133.915 162.706V162.5H135.521L140.196 175.887ZM131.834 171.933H137.787L134.821 163.386L131.834 171.933Z" fill="white"/>
<path d="M66.5822 169.853L63.6696 172.765L60.757 169.853L63.6696 166.94L66.5822 169.853Z" fill="white"/>
<path d="M135.462 38.7683C150.409 38.7683 155.866 51.8881 156.103 60.4756C156.103 93.8711 99.6357 95.0639 95.1278 120.111L94.6533 124.404C94.6534 136.57 104.144 142.772 114.346 142.772C118.854 142.772 123.361 141.579 127.395 139.194C149.45 126.08 163.446 102.479 163.458 102.458L171.05 122.257C171.05 122.496 136.648 144.68 115.532 144.68C102.072 144.68 90.5949 138.964 85.5421 129.12C80.507 139.005 69.009 144.747 55.5183 144.747C34.4024 144.747 0 122.562 0 122.324L7.59241 102.525C7.6116 102.557 21.6057 126.149 43.6555 139.26C47.6889 141.646 52.1968 142.838 56.7047 142.838C66.9067 142.838 76.3969 136.636 76.397 124.471L75.9225 120.177C71.4146 95.1305 14.9475 93.9377 14.9474 60.5422C15.1847 51.9548 20.6414 38.835 35.5886 38.835L38.4357 39.0736C52.9084 40.5048 78.7696 56.9639 78.7696 56.9639L76.397 68.8911C76.397 68.8911 61.6869 51.9548 50.2986 45.0371C45.3162 42.1747 40.5709 40.7434 36.5375 40.7434C27.9964 40.7435 22.065 46.2297 22.065 53.8628L22.5394 57.6797C26.4716 75.1574 73.5459 81.9275 85.5086 106.01C97.4174 81.8733 144.575 75.1069 148.511 57.6131L148.985 53.7962C148.985 46.163 143.054 40.6768 134.513 40.6768C130.479 40.6768 125.734 42.108 120.752 44.9705C109.363 51.8882 94.6533 68.8244 94.6533 68.8244L92.2807 56.8973C92.2807 56.8973 118.142 40.4382 132.615 39.0069L135.462 38.7683Z" fill="white"/>
</mask>
<g mask="url(#mask0_136_2)">
<rect x="290.064" y="-70" width="219.327" height="390.065" transform="rotate(90 290.064 -70)" fill="#67864B"/>
</g>
</svg>
